HIERARCHY
ROOT Hips
{
	OFFSET	0.00	0.00	0.00
	CHANNELS 6 Xposition Yposition Zposition Zrotation Xrotation Yrotation
	JOINT LeftUpLeg
	{
		OFFSET	 0.126116	-0.014019	-0.065224
		CHANNELS 3 Zrotation Xrotation Yrotation
		JOINT LeftLeg
		{
			OFFSET	 0.000000	 0.000000	 0.569914
			CHANNELS 3 Zrotation Xrotation Yrotation
			JOINT LeftFoot
			{
				OFFSET	 0.000000	 0.000000	 0.544423
				CHANNELS 3 Zrotation Xrotation Yrotation
				JOINT LeftToeBase
				{
					OFFSET	 0.000000	 0.000000	 0.207117
					CHANNELS 3 Zrotation Xrotation Yrotation
					End Site
					{
						OFFSET	 0.000000	 0.000000	 0.207117
					}
				}
			}
		}
	}
	JOINT RightUpLeg
	{
		OFFSET	-0.124023	-0.008373	-0.065224
		CHANNELS 3 Zrotation Xrotation Yrotation
		JOINT RightLeg
		{
			OFFSET	 0.000000	 0.000000	 0.570047
			CHANNELS 3 Zrotation Xrotation Yrotation
			JOINT RightFoot
			{
				OFFSET	 0.000000	 0.000000	 0.544354
				CHANNELS 3 Zrotation Xrotation Yrotation
				JOINT RightToeBase
				{
					OFFSET	 0.000000	 0.000000	 0.207540
					CHANNELS 3 Zrotation Xrotation Yrotation
					End Site
					{
						OFFSET	 0.000000	 0.000000	 0.207540
					}
				}
			}
		}
	}
	JOINT Spine
	{
		OFFSET	 0.000184	-0.007763	 0.117403
		CHANNELS 3 Zrotation Xrotation Yrotation
		JOINT Spine1
		{
			OFFSET	 0.000000	 0.000000	 0.137269
			CHANNELS 3 Zrotation Xrotation Yrotation
			JOINT Spine2
			{
				OFFSET	 0.000000	 0.000000	 0.156879
				CHANNELS 3 Zrotation Xrotation Yrotation
				JOINT LeftShoulder
				{
					OFFSET	 0.080501	-0.002496	 0.160144
					CHANNELS 3 Zrotation Xrotation Yrotation
					JOINT LeftArm
					{
						OFFSET	 0.000000	 0.000000	 0.164363
						CHANNELS 3 Zrotation Xrotation Yrotation
						JOINT LeftForeArm
						{
							OFFSET	 0.000000	 0.000000	 0.364576
							CHANNELS 3 Zrotation Xrotation Yrotation
							JOINT LeftHand
							{
								OFFSET	 0.000000	 0.000000	 0.360812
								CHANNELS 3 Zrotation Xrotation Yrotation
								JOINT LeftHandIndex1
								{
									OFFSET	 0.000000	 0.000000	 0.086006
									CHANNELS 3 Zrotation Xrotation Yrotation
									JOINT LeftHandIndex2
									{
										OFFSET	 0.000000	 0.000000	 0.047236
										CHANNELS 3 Zrotation Xrotation Yrotation
										JOINT LeftHandIndex3
										{
											OFFSET	-0.004284	-0.000551	 0.038166
											CHANNELS 3 Zrotation Xrotation Yrotation
											End Site
											{
												OFFSET	-0.004284	-0.000551	 0.038166
											}
										}
									}
								}
							}
						}
					}
				}
				JOINT Neck
				{
					OFFSET	 0.000000	 0.000000	 0.176489
					CHANNELS 3 Zrotation Xrotation Yrotation
					JOINT Head
					{
						OFFSET	 0.000000	-0.001747	 0.077940
						CHANNELS 3 Zrotation Xrotation Yrotation
						End Site
						{
							OFFSET	 0.000000	-0.001747	 0.077940
						}
					}
				}
				JOINT RightShoulder
				{
					OFFSET	-0.080363	 0.000306	 0.159706
					CHANNELS 3 Zrotation Xrotation Yrotation
					JOINT RightArm
					{
						OFFSET	 0.000000	 0.000000	 0.164196
						CHANNELS 3 Zrotation Xrotation Yrotation
						JOINT RightForeArm
						{
							OFFSET	 0.000000	 0.000000	 0.365611
							CHANNELS 3 Zrotation Xrotation Yrotation
							JOINT RightHand
							{
								OFFSET	 0.000000	 0.000000	 0.360648
								CHANNELS 3 Zrotation Xrotation Yrotation
								JOINT RightHandIndex1
								{
									OFFSET	 0.000000	 0.000000	 0.069977
									CHANNELS 3 Zrotation Xrotation Yrotation
									JOINT RightHandIndex2
									{
										OFFSET	 0.000000	 0.000000	 0.052305
										CHANNELS 3 Zrotation Xrotation Yrotation
										JOINT RightHandIndex3
										{
											OFFSET	 0.009002	-0.000782	 0.042196
											CHANNELS 3 Zrotation Xrotation Yrotation
											End Site
											{
												OFFSET	 0.009002	-0.000782	 0.042196
											}
										}
									}
								}
							}
						}
					}
				}
			}
		}
	}
}
MOTION
Frames:    12
Frame Time: 0.03333334
-1.403780	-12.863250	 1.174598	-11.912310	 17.086350	 3.758709	 3.408541	-34.952370	 175.216900	-0.995664	-43.208890	-0.173343	-0.635801	 80.635900	 0.604355	-2.350012	 34.472200	-0.136246	-0.717773	-36.210750	-179.573900	-3.076920	-43.356820	-1.006832	-1.592148	 80.731400	 0.416053	 2.406824	 19.659050	-0.179861	-1.346130	 15.306390	 1.810221	-2.683956	 2.273196	-1.767440	-3.905428	-3.472081	-0.376005	-125.835200	 89.282630	-141.723900	 53.485910	 65.426040	-61.021480	-10.694390	-1.357023	-22.072280	-1.894247	-2.182721	-5.375617	-5.768094	-12.409790	-1.555989	-5.213516	-0.193813	 3.566525	-1.378229	 35.397820	-2.634230	 0.825015	 0.206603	-3.831717	-0.920079	-6.577846	 1.033220	 93.693720	 85.930570	 171.997700	-62.323950	 74.028880	 72.354080	-1.822206	-15.647980	 32.649970	-23.808280	-3.189397	 9.582014	-10.084380	-10.362440	-39.058160	 5.070815	-0.697434	-9.399699	-2.350882	 35.473990	 5.254307
-1.403790	-12.870010	 1.175321	-11.808020	 17.397200	 3.762603	 3.537279	-34.857590	 175.394300	-1.366269	-43.075140	-0.354461	-0.756078	 80.934510	 0.502008	-2.352782	 34.102650	-0.127479	-0.739483	-36.035990	-179.498600	-2.967484	-43.052390	-0.947824	-1.603337	 81.220140	 0.521088	 2.406661	 19.853420	-0.176014	-1.348525	 15.188500	 1.722170	-2.697108	 2.135534	-1.802894	-3.925126	-3.651583	-0.384008	-125.621200	 89.279640	-141.943500	 55.471080	 66.068210	-61.666580	-10.264470	-1.425113	-21.277620	-1.668800	-2.198563	-5.374792	-5.643757	-12.201570	-1.285722	-5.213516	-0.193813	 3.566525	-1.378229	 35.397820	-2.634230	 0.804569	 0.120976	-3.802374	-0.925520	-6.834592	 1.162526	 93.698670	 85.949480	 172.016400	-61.194210	 75.017280	 70.539710	-2.546784	-14.799780	 29.462240	-24.533640	-3.187986	 9.582293	-9.876004	-9.940557	-38.875350	 5.070815	-0.697434	-9.399699	-2.350882	 35.473990	 5.254307
-1.403852	-12.877310	 1.175720	-11.719350	 17.721830	 3.778620	 3.613965	-34.862340	 175.522800	-1.714561	-43.072030	-0.550791	-0.873230	 81.277920	 0.381431	-2.353834	 33.959030	-0.124093	-0.760988	-35.886510	-179.427900	-2.816983	-42.798050	-0.860871	-1.596602	 81.792280	 0.645056	 2.406298	 20.240620	-0.168322	-1.319690	 15.043730	 1.617389	-2.690547	 1.987605	-1.855315	-3.957195	-3.840717	-0.393632	-125.095700	 89.268040	-142.457300	 57.596100	 66.683690	-62.395230	-9.743533	-1.500603	-20.475430	-1.404909	-2.216111	-5.373565	-5.482543	-12.021600	-0.926635	-5.213516	-0.193813	 3.566525	-1.378229	 35.397820	-2.634230	 0.775157	 0.016076	-3.733536	-0.955622	-7.095729	 1.217567	 93.692260	 85.968330	 172.058000	-58.974040	 76.243370	 67.386710	-3.213610	-13.974830	 26.393780	-25.436640	-3.184969	 9.584177	-9.631694	-9.453547	-38.652680	 5.070815	-0.697434	-9.399699	-2.350882	 35.473990	 5.254307
-1.404028	-12.883650	 1.175845	-11.684360	 18.011760	 3.794169	 3.602195	-34.957380	 175.563900	-1.919168	-43.164230	-0.699815	-0.959116	 81.589820	 0.289285	-2.352508	 34.139200	-0.128337	-0.771818	-35.759430	-179.400800	-2.663867	-42.616800	-0.765122	-1.570910	 82.286610	 0.755609	 2.405788	 20.698450	-0.159205	-1.265814	 14.888640	 1.544129	-2.669261	 1.851864	-1.899563	-3.995988	-4.007442	-0.403266	-124.232700	 89.248790	-143.295900	 59.419420	 67.163310	-63.041280	-9.222117	-1.576916	-19.804620	-1.129507	-2.231979	-5.371912	-5.286326	-11.844480	-0.484171	-5.213516	-0.193813	 3.566525	-1.378229	 35.397820	-2.634230	 0.744219	-0.093931	-3.648704	-1.005692	-7.317820	 1.165799	 93.674710	 85.984730	 172.118200	-56.061720	 77.341380	 63.511700	-3.732243	-13.336980	 24.074690	-26.273450	-3.190525	 9.574322	-9.409176	-9.006112	-38.449580	 5.070815	-0.697434	-9.399699	-2.350882	 35.473990	 5.254307
-1.404279	-12.889520	 1.175890	-11.712440	 18.252570	 3.814484	 3.575891	-34.964970	 175.597900	-2.022980	-43.304030	-0.792255	-1.016788	 81.870440	 0.236853	-2.349795	 34.501090	-0.136932	-0.758738	-35.619430	-179.432300	-2.524586	-42.470000	-0.664116	-1.529272	 82.678120	 0.850235	 2.405320	 21.069950	-0.151786	-1.191655	 14.756940	 1.503120	-2.626989	 1.710521	-1.923522	-4.022100	-4.174345	-0.411717	-123.002000	 89.218900	-144.494100	 61.025330	 67.564150	-63.611660	-8.702579	-1.655190	-19.219700	-0.838905	-2.246128	-5.369940	-5.023698	-11.588450	 0.111378	-5.213516	-0.193813	 3.566525	-1.378229	 35.397820	-2.634230	 0.731261	-0.216196	-3.561135	-1.051832	-7.532550	 1.071430	 93.653240	 86.002370	 172.187900	-52.581940	 78.295490	 59.101090	-4.121066	-12.872480	 22.356380	-27.034220	-3.198892	 9.559258	-9.211088	-8.595671	-38.274780	 5.070815	-0.697434	-9.399699	-2.350882	 35.473990	 5.254307
-1.404516	-12.895560	 1.175921	-11.807400	 18.473680	 3.841730	 3.554053	-34.979060	 175.626000	-2.068553	-43.474980	-0.843575	-1.053400	 82.138150	 0.211802	-2.345946	 34.996880	-0.148793	-0.745127	-35.441570	-179.466500	-2.386176	-42.335620	-0.563495	-1.479985	 82.993920	 0.932881	 2.404954	 21.334500	-0.146486	-1.091717	 14.633720	 1.469740	-2.557995	 1.546480	-1.912759	-4.029965	-4.364937	-0.419175	-121.204300	 89.171730	-146.249100	 62.562230	 67.972270	-64.124400	-8.183759	-1.735481	-18.648090	-0.525964	-2.259037	-5.367557	-4.673242	-11.260060	 0.914824	-5.213516	-0.193813	 3.566525	-1.378229	 35.397820	-2.634230	 0.747128	-0.366103	-3.477016	-1.091029	-7.763915	 1.012260	 93.681300	 86.055580	 172.210500	-48.253370	 79.169040	 53.820460	-4.439498	-12.457020	 20.875180	-27.761630	-3.207296	 9.542583	-9.027361	-8.190983	-38.127500	 5.070815	-0.697434	-9.399699	-2.350882	 35.473990	 5.254307
-1.404741	-12.900770	 1.176017	-11.940840	 18.651620	 3.877149	 3.544381	-34.962250	 175.632100	-2.089575	-43.612640	-0.869992	-1.077448	 82.332330	 0.204170	-2.342338	 35.443470	-0.159590	-0.735888	-35.288080	-179.506300	-2.301972	-42.252730	-0.501395	-1.449021	 83.189740	 0.983682	 2.404789	 21.450900	-0.144156	-0.996187	 14.532880	 1.428795	-2.485538	 1.402856	-1.872249	-4.022274	-4.529386	-0.424104	-119.169900	 89.113750	-148.249500	 63.727840	 68.350620	-64.450650	-7.827114	-1.791569	-18.187170	-0.287494	-2.269011	-5.365519	-4.376256	-10.968170	 1.602516	-5.213516	-0.193813	 3.566525	-1.378229	 35.397820	-2.634230	 0.778960	-0.473924	-3.403519	-1.114382	-7.977844	 1.017940	 93.759020	 86.136140	 172.175800	-44.115860	 79.790360	 48.907910	-4.626193	-12.123570	 19.802420	-28.284270	-3.213952	 9.528462	-8.900990	-7.880719	-38.047710	 5.070815	-0.697434	-9.399699	-2.350882	 35.473990	 5.254307
-1.404936	-12.906130	 1.176268	-12.111990	 18.841560	 3.925761	 3.550397	-34.897010	 175.658900	-2.136710	-43.704670	-0.904888	-1.106535	 82.475400	 0.193075	-2.338751	 35.874790	-0.170096	-0.730131	-35.271390	-179.574200	-2.306470	-42.193450	-0.500912	-1.457473	 83.312770	 1.000678	 2.404670	 21.527200	-0.142617	-0.909071	 14.422420	 1.354514	-2.413167	 1.263404	-1.799820	-4.000173	-4.686572	-0.427217	-116.502900	 89.030650	-150.902700	 64.782670	 68.771280	-64.664600	-7.582384	-1.824376	-17.738660	-0.115103	-2.278719	-5.363840	-4.150844	-10.714320	 2.128695	-5.213516	-0.193813	 3.566525	-1.378229	 35.397820	-2.634230	 0.824713	-0.531541	-3.307098	-1.124583	-8.218099	 1.069569	 93.893250	 86.251220	 172.085600	-39.512790	 80.291760	 43.518930	-4.692362	-11.786720	 18.889490	-28.653940	-3.220493	 9.514891	-8.797283	-7.642252	-37.970270	 5.070815	-0.697434	-9.399699	-2.350882	 35.473990	 5.254307
-1.404990	-12.910600	 1.176708	-12.274920	 19.017370	 3.955103	 3.564237	-34.837320	 175.693900	-2.218526	-43.698720	-0.955125	-1.139566	 82.521100	 0.169357	-2.335760	 36.223930	-0.178663	-0.748497	-35.301910	-179.557400	-2.381848	-42.160300	-0.562853	-1.505635	 83.346190	 0.981834	 2.404615	 21.561850	-0.141920	-0.853062	 14.311520	 1.286490	-2.360002	 1.158497	-1.717764	-3.966294	-4.802757	-0.427587	-113.935700	 88.936150	-153.473900	 65.537410	 69.116150	-64.786220	-7.480719	-1.830917	-17.399770	-0.039752	-2.286533	-5.362855	-4.037428	-10.600650	 2.395317	-5.213516	-0.193813	 3.566525	-1.378229	 35.397820	-2.634230	 0.865160	-0.553085	-3.195261	-1.109267	-8.405898	 1.138190	 94.050610	 86.364820	 171.955800	-35.783040	 80.571750	 39.161350	-4.687400	-11.533110	 18.298410	-28.830870	-3.225311	 9.504704	-8.740975	-7.556535	-37.896890	 5.070815	-0.697434	-9.399699	-2.350882	 35.473990	 5.254307
-1.405092	-12.914990	 1.177469	-12.437140	 19.202380	 3.950135	 3.573369	-34.798640	 175.729700	-2.325523	-43.646070	-1.022900	-1.176054	 82.493920	 0.131459	-2.332777	 36.563220	-0.187052	-0.780876	-35.342130	-179.511200	-2.472106	-42.134580	-0.643048	-1.568781	 83.369030	 0.956811	 2.404595	 21.577310	-0.141614	-0.815178	 14.197450	 1.236272	-2.318217	 1.062128	-1.621130	-3.925492	-4.907807	-0.426755	-111.457400	 88.826300	-155.966000	 66.207150	 69.418330	-64.940650	-7.400403	-1.838525	-17.083190	 0.038246	-2.294480	-5.361815	-3.969460	-10.638730	 2.556282	-5.213516	-0.193813	 3.566525	-1.378229	 35.397820	-2.634230	 0.900624	-0.605082	-3.061515	-1.080706	-8.533525	 1.230562	 94.254490	 86.485530	 171.759200	-32.424130	 80.729850	 35.209040	-4.778201	-11.356350	 17.837740	-29.028980	-3.229336	 9.495687	-8.711736	-7.572839	-37.815540	 5.070815	-0.697434	-9.399699	-2.350882	 35.473990	 5.254307
-1.405223	-12.919270	 1.178377	-12.617360	 19.396830	 3.925850	 3.576299	-34.789610	 175.759200	-2.458766	-43.565830	-1.110205	-1.215912	 82.410670	 0.076934	-2.329786	 36.894360	-0.195304	-0.822589	-35.448600	-179.423400	-2.565002	-42.105040	-0.731370	-1.639555	 83.394170	 0.930273	 2.404560	 21.603510	-0.141090	-0.784089	 14.087700	 1.215259	-2.277923	 0.978856	-1.520785	-3.876069	-4.996253	-0.424345	-109.655300	 88.729900	-157.784100	 66.793570	 69.665530	-65.129400	-7.181828	-1.889959	-16.756490	 0.272236	-2.303234	-5.359397	-3.905643	-10.807030	 2.707726	-5.213516	-0.193813	 3.566525	-1.378229	 35.397820	-2.634230	 0.932931	-0.690939	-2.914829	-1.037171	-8.587662	 1.348792	 94.488330	 86.605460	 171.519000	-29.358650	 80.805100	 31.588320	-4.913229	-11.251660	 17.504100	-29.236550	-3.232388	 9.487804	-8.680169	-7.602355	-37.719320	 5.070815	-0.697434	-9.399699	-2.350882	 35.473990	 5.254307
-1.405522	-12.923430	 1.179285	-12.793610	 19.573350	 3.901660	 3.574242	-34.783710	 175.772800	-2.585645	-43.468250	-1.194495	-1.253938	 82.307750	 0.023038	-2.327094	 37.186130	-0.202617	-0.856778	-35.385990	-179.352500	-2.675089	-42.059770	-0.825811	-1.717156	 83.404920	 0.902873	 2.404516	 21.630020	-0.140554	-0.759435	 13.985170	 1.218294	-2.243613	 0.915332	-1.439904	-3.828155	-5.061671	-0.421266	-108.471900	 88.657970	-158.985500	 67.203830	 69.854000	-65.284470	-6.810349	-1.994156	-16.470370	 0.691837	-2.312043	-5.355270	-3.846997	-10.911890	 2.846060	-5.213516	-0.193813	 3.566525	-1.378229	 35.397820	-2.634230	 0.961946	-0.768942	-2.775316	-0.993464	-8.606212	 1.451324	 94.690800	 86.701350	 171.308800	-26.942880	 80.809270	 28.710920	-5.053065	-11.213040	 17.314890	-29.408700	-3.234235	 9.482216	-8.648125	-7.637434	-37.618100	 5.070815	-0.697434	-9.399699	-2.350882	 35.473990	 5.254307
